<svg xmlns="http://www.w3.org/2000/svg" version="1.1" xmlns:xlink="http://www.w3.org/1999/xlink" xmlns:svgjs="http://svgjs.dev/svgjs" width="1080" height="1080" preserveAspectRatio="none" viewBox="0 0 1080 1080"><g mask="url(&quot;#SvgjsMask1060&quot;)" fill="none"><rect width="1080" height="1080" x="0" y="0" fill="rgba(212, 45, 45, 1)"></rect><path d="M0,536.334C99.765,537.755,138.675,400.163,220.218,342.666C296.704,288.735,424.562,296.754,461.643,210.825C498.857,124.588,408.543,36.109,392.439,-56.424C377.006,-145.101,420.684,-246.092,369.265,-319.97C317.229,-394.734,216.452,-414.11,128.09,-436.236C42.626,-457.636,-44.585,-463.717,-130.712,-445.163C-221.736,-425.554,-322.258,-402.085,-377.699,-327.278C-432.435,-253.423,-405.157,-151.103,-416.275,-59.851C-427.1,28.993,-482.509,122.037,-442.177,201.935C-401.86,281.802,-287.582,282.486,-216.224,336.451C-136.319,396.88,-100.172,534.907,0,536.334" fill="#c02727"></path><path d="M1080 1463.657C1151.63 1447.63 1225.003 1441.394 1286.578 1401.441 1347.979 1361.601 1383.487 1297.315 1427.035 1238.4850000000001 1482.666 1163.331 1569.445 1101.636 1577.461 1008.476 1585.836 911.14 1546.79 802.348 1469.7269999999999 742.3 1393.963 683.264 1285.177 716.952 1189.716 706.341 1113.203 697.836 1038.451 665.264 964.347 686.124 889.861 707.092 842.649 773.9639999999999 781.418 821.278 702.579 882.198 573.4590000000001 906.737 552.725 1004.189 532.297 1100.205 644.597 1170.985 688.317 1258.876 730.133 1342.94 720.8330000000001 1465.905 804.037 1509.406 888.377 1553.501 987.125 1484.437 1080 1463.657" fill="#d84242"></path></g><defs><mask id="SvgjsMask1060"><rect width="1080" height="1080" fill="#ffffff"></rect></mask></defs></svg>